<svg width="25" height="25" viewBox="0 0 25 25" fill="none" xmlns="http://www.w3.org/2000/svg">
<path d="M22.0538 12.4795C22.0538 11.8205 21.9954 11.1948 21.8953 10.5858H12.4684V14.3482H17.8659C17.624 15.5829 16.9149 16.6257 15.8637 17.3348V19.8375H19.0839C20.9693 18.094 22.0538 15.5245 22.0538 12.4795Z" fill="#141414"/>
<path d="M12.4684 22.2652C15.1713 22.2652 17.4321 21.3642 19.0839 19.8375L15.8637 17.3348C14.9628 17.9355 13.8199 18.3025 12.4684 18.3025C9.85722 18.3025 7.64649 16.5423 6.85396 14.1647H3.53369V16.7425C5.17714 20.0127 8.55581 22.2652 12.4684 22.2652Z" fill="#141414"/>
<path d="M6.85396 14.1647C6.6454 13.564 6.53695 12.9217 6.53695 12.2543C6.53695 11.5869 6.65374 10.9445 6.85396 10.3439V7.76607H3.53369C2.84961 9.11754 2.45752 10.6359 2.45752 12.2543C2.45752 13.8727 2.84961 15.391 3.53369 16.7425L6.85396 14.1647Z" fill="#141414"/>
<path d="M12.4684 6.20605C13.945 6.20605 15.2631 6.71493 16.3059 7.70768L19.159 4.85458C17.4321 3.23615 15.1713 2.24341 12.4684 2.24341C8.55581 2.24341 5.17714 4.49585 3.53369 7.76607L6.85396 10.3439C7.64649 7.96629 9.85722 6.20605 12.4684 6.20605Z" fill="#141414"/>
</svg>
