<svg width="57" height="57" viewBox="0 0 57 57" fill="none" xmlns="http://www.w3.org/2000/svg">
<rect x="0.5" y="0.243408" width="56" height="56" rx="28" fill="#F4F5F6"/>
<path d="M38.0538 28.4795C38.0538 27.8205 37.9954 27.1948 37.8953 26.5858H28.4684V30.3482H33.8659C33.624 31.5829 32.9149 32.6257 31.8637 33.3348V35.8375H35.0839C36.9693 34.094 38.0538 31.5245 38.0538 28.4795Z" fill="#141414"/>
<path d="M28.4684 38.2652C31.1713 38.2652 33.4321 37.3642 35.0839 35.8375L31.8637 33.3348C30.9628 33.9355 29.8199 34.3025 28.4684 34.3025C25.8572 34.3025 23.6465 32.5423 22.854 30.1647H19.5337V32.7425C21.1771 36.0127 24.5558 38.2652 28.4684 38.2652Z" fill="#141414"/>
<path d="M22.854 30.1647C22.6454 29.564 22.5369 28.9217 22.5369 28.2543C22.5369 27.5869 22.6537 26.9445 22.854 26.3439V23.7661H19.5337C18.8496 25.1175 18.4575 26.6359 18.4575 28.2543C18.4575 29.8727 18.8496 31.391 19.5337 32.7425L22.854 30.1647Z" fill="#141414"/>
<path d="M28.4684 22.206C29.945 22.206 31.2631 22.7149 32.3059 23.7077L35.159 20.8546C33.4321 19.2362 31.1713 18.2434 28.4684 18.2434C24.5558 18.2434 21.1771 20.4959 19.5337 23.7661L22.854 26.3439C23.6465 23.9663 25.8572 22.206 28.4684 22.206Z" fill="#141414"/>
</svg>
