<svg width="25" height="25" viewBox="0 0 25 25" fill="none" xmlns="http://www.w3.org/2000/svg">
<path fill-rule="evenodd" clip-rule="evenodd" d="M5.04492 15.2434C5.04492 10.9632 8.51472 7.49341 12.7949 7.49341C17.0751 7.49341 20.5449 10.9632 20.5449 15.2434C20.5449 19.5236 17.0751 22.9934 12.7949 22.9934C8.51472 22.9934 5.04492 19.5236 5.04492 15.2434ZM12.7949 8.99341C9.34314 8.99341 6.54492 11.7916 6.54492 15.2434C6.54492 18.6952 9.34314 21.4934 12.7949 21.4934C16.2467 21.4934 19.0449 18.6952 19.0449 15.2434C19.0449 11.7916 16.2467 8.99341 12.7949 8.99341Z" fill="#353945"/>
<path fill-rule="evenodd" clip-rule="evenodd" d="M12.7949 13.4934C13.2091 13.4934 13.5449 13.8292 13.5449 14.2434V16.2434C13.5449 16.6576 13.2091 16.9934 12.7949 16.9934C12.3807 16.9934 12.0449 16.6576 12.0449 16.2434V14.2434C12.0449 13.8292 12.3807 13.4934 12.7949 13.4934Z" fill="#353945"/>
<path fill-rule="evenodd" clip-rule="evenodd" d="M12.7949 2.99341C11 2.99341 9.54492 4.44848 9.54492 6.24341V9.24341C9.54492 9.65762 9.20914 9.99341 8.79492 9.99341C8.38071 9.99341 8.04492 9.65762 8.04492 9.24341V6.24341C8.04492 3.62006 10.1716 1.49341 12.7949 1.49341C15.4183 1.49341 17.5449 3.62006 17.5449 6.24341V9.24341C17.5449 9.65762 17.2091 9.99341 16.7949 9.99341C16.3807 9.99341 16.0449 9.65762 16.0449 9.24341V6.24341C16.0449 4.44848 14.5898 2.99341 12.7949 2.99341Z" fill="#353945"/>
</svg>
