<svg width="25" height="25" viewBox="0 0 25 25" fill="none" xmlns="http://www.w3.org/2000/svg">
<path fill-rule="evenodd" clip-rule="evenodd" d="M18.7949 5.74341L6.79492 5.74341C5.41421 5.74341 4.29492 6.8627 4.29492 8.24341L4.29492 16.2434C4.29492 17.6241 5.41421 18.7434 6.79492 18.7434H18.7949C20.1756 18.7434 21.2949 17.6241 21.2949 16.2434L21.2949 8.24341C21.2949 6.8627 20.1756 5.74341 18.7949 5.74341ZM6.79492 4.24341C4.58578 4.24341 2.79492 6.03427 2.79492 8.24341L2.79492 16.2434C2.79492 18.4525 4.58578 20.2434 6.79492 20.2434H18.7949C21.0041 20.2434 22.7949 18.4525 22.7949 16.2434L22.7949 8.24341C22.7949 6.03427 21.0041 4.24341 18.7949 4.24341L6.79492 4.24341Z" fill="#353945"/>
<path fill-rule="evenodd" clip-rule="evenodd" d="M9.26459 9.71308C9.55748 9.42018 10.0324 9.42018 10.3253 9.71308L12.7949 12.1827L15.2646 9.71308C15.5575 9.42018 16.0324 9.42018 16.3253 9.71308C16.6181 10.006 16.6181 10.4808 16.3253 10.7737L13.3253 13.7737C13.0324 14.0666 12.5575 14.0666 12.2646 13.7737L9.26459 10.7737C8.9717 10.4808 8.9717 10.006 9.26459 9.71308Z" fill="#353945"/>
</svg>
