<svg width="56" height="57" viewBox="0 0 56 57" fill="none" xmlns="http://www.w3.org/2000/svg">
<path fill-rule="evenodd" clip-rule="evenodd" d="M28 51.25C15.4355 51.25 5.25 41.0645 5.25 28.5C5.25 15.9355 15.4355 5.75 28 5.75C40.5645 5.75 50.75 15.9355 50.75 28.5C50.75 41.0645 40.5645 51.25 28 51.25ZM8.75 28.5C8.75 39.1315 17.3685 47.75 28 47.75C38.6315 47.75 47.25 39.1315 47.25 28.5C47.25 17.8685 38.6315 9.25 28 9.25C17.3685 9.25 8.75 17.8685 8.75 28.5Z" fill="#24B34C"/>
<path fill-rule="evenodd" clip-rule="evenodd" d="M36.8209 22.5959C37.5043 23.2793 37.5043 24.3873 36.8209 25.0708L27.4876 34.4041C26.8042 35.0875 25.6961 35.0875 25.0127 34.4041L20.3461 29.7374C19.6626 29.054 19.6626 27.946 20.3461 27.2626C21.0295 26.5791 22.1375 26.5791 22.8209 27.2626L26.2502 30.6918L34.3461 22.5959C35.0295 21.9125 36.1375 21.9125 36.8209 22.5959Z" fill="#24B34C"/>
</svg>
