<svg width="25" height="25" viewBox="0 0 25 25" fill="none" xmlns="http://www.w3.org/2000/svg">
<path fill-rule="evenodd" clip-rule="evenodd" d="M12.5898 3.49341C10.7949 3.49341 9.33984 4.94848 9.33984 6.74341C9.33984 8.53833 10.7949 9.99341 12.5898 9.99341C14.3848 9.99341 15.8398 8.53833 15.8398 6.74341C15.8398 4.94848 14.3848 3.49341 12.5898 3.49341ZM7.83984 6.74341C7.83984 4.12006 9.96649 1.99341 12.5898 1.99341C15.2132 1.99341 17.3398 4.12006 17.3398 6.74341C17.3398 9.36676 15.2132 11.4934 12.5898 11.4934C9.96649 11.4934 7.83984 9.36676 7.83984 6.74341Z" fill="#141414"/>
<path fill-rule="evenodd" clip-rule="evenodd" d="M3.83984 19.8973C3.83984 16.0844 6.9308 12.9934 10.7437 12.9934H14.436C18.2489 12.9934 21.3398 16.0844 21.3398 19.8973C21.3398 21.3311 20.1775 22.4934 18.7437 22.4934H6.436C5.00218 22.4934 3.83984 21.3311 3.83984 19.8973ZM10.7437 14.4934C7.75923 14.4934 5.33984 16.9128 5.33984 19.8973C5.33984 20.5026 5.83061 20.9934 6.436 20.9934H18.7437C19.3491 20.9934 19.8398 20.5026 19.8398 19.8973C19.8398 16.9128 17.4205 14.4934 14.436 14.4934H10.7437Z" fill="#141414"/>
</svg>
